# xmcd
#
# Track frame offsets: 
#        150
#        15255
#        32397
#        44884
#        61130
#
# Disc length: 1080 seconds
#
# Revision: 0
# Processed by: cddbd v1.5.2PL0 Copyright (c) Steve Scherf et al.
# Submitted via: ExactAudioCopy v0.99pb4
#
DISCID=33043605
DTITLE=Ralhp"Soul"Jackson - The Alabama Love Man
DYEAR=2012
DGENRE=Soul
TTITLE0=Play Some Southern Soul
TTITLE1=Just Because I Love You
TTITLE2=For Just One Second
TTITLE3=I Will Take Care Of You
TTITLE4=Real True Man
EXTD=
EXTT0=
EXTT1=
EXTT2=
EXTT3=
EXTT4=
PLAYORDER=
